<svg width="20" height="20" viewBox="0 0 20 20" fill="none" xmlns="http://www.w3.org/2000/svg">
<path d="M10.2728 18C9.12604 18 8.05112 17.7814 7.04802 17.3443C6.04491 16.9072 5.17122 16.3165 4.42695 15.5723C3.68267 14.8281 3.09211 13.9539 2.65527 12.9496C2.21842 11.9453 2 10.8694 2 9.72193C2 8.02806 2.4677 6.49129 3.40309 5.11161C4.33849 3.73193 5.59087 2.72108 7.16023 2.07905C7.35135 2.01075 7.5493 1.98671 7.75407 2.00693C7.95884 2.02714 8.12948 2.09217 8.266 2.20199C8.37521 2.29761 8.46067 2.43094 8.52237 2.60196C8.58408 2.77299 8.61465 2.99483 8.61411 3.26749C8.64141 4.34664 8.85983 5.37471 9.26938 6.35169C9.67892 7.32866 10.2659 8.19936 11.0304 8.96379C11.7949 9.72821 12.6686 10.3156 13.6515 10.726C14.6344 11.1363 15.6651 11.3549 16.7435 11.3816C17.0302 11.3816 17.2486 11.4057 17.3988 11.4538C17.549 11.5018 17.6718 11.5803 17.7674 11.689C17.8766 11.8256 17.9484 12.0032 17.9828 12.2217C18.0172 12.4403 18 12.6384 17.9312 12.816C17.3032 14.3869 16.293 15.6436 14.9006 16.5862C13.5081 17.5287 11.9655 18 10.2728 18Z" fill="white"/>
</svg>
