<svg width="40" height="40" viewBox="0 0 40 40" fill="none" xmlns="http://www.w3.org/2000/svg">
<g filter="url(#filter0_d_20512_33702)">
<path d="M20.0049 10C21.4067 10.0001 22.4368 11.0068 22.752 12.2646C25.2988 13.1941 26.2618 15.6632 26.3379 19.4775C26.4046 20.5905 26.5768 21.9648 27.2061 22.6328C28.0358 23.4944 28.9999 24.366 29 25.334C29 26.0311 28.4657 26.5058 27.5596 26.5059H23.5342C23.4576 28.3643 22.0173 29.9999 20.0049 30C17.9826 30 16.5425 28.3644 16.4658 26.5059H12.4404C11.544 26.5059 11.0002 26.0315 11 25.335C11 24.3665 11.9725 23.4944 12.793 22.6328C13.4318 21.9649 13.5948 20.591 13.6709 19.4775C13.7376 15.6636 14.7108 13.1941 17.248 12.2646C17.5726 11.0068 18.5928 10 20.0049 10Z" fill="url(#paint0_linear_20512_33702)"/>
</g>
<defs>
<filter id="filter0_d_20512_33702" x="6" y="5" width="28" height="30" filterUnits="userSpaceOnUse" color-interpolation-filters="sRGB">
<feFlood flood-opacity="0" result="BackgroundImageFix"/>
<feColorMatrix in="SourceAlpha" type="matrix" values="0 0 0 0 0 0 0 0 0 0 0 0 0 0 0 0 0 0 127 0" result="hardAlpha"/>
<feOffset/>
<feGaussianBlur stdDeviation="2.5"/>
<feComposite in2="hardAlpha" operator="out"/>
<feColorMatrix type="matrix" values="0 0 0 0 0.968627 0 0 0 0 0.0588235 0 0 0 0 0.545098 0 0 0 0.5 0"/>
<feBlend mode="normal" in2="BackgroundImageFix" result="effect1_dropShadow_20512_33702"/>
<feBlend mode="normal" in="SourceGraphic" in2="effect1_dropShadow_20512_33702" result="shape"/>
</filter>
<linearGradient id="paint0_linear_20512_33702" x1="20" y1="10" x2="20" y2="29.9999" gradientUnits="userSpaceOnUse">
<stop stop-color="#F70F8B"/>
<stop offset="1" stop-color="#FC08B7"/>
</linearGradient>
</defs>
</svg>
